<?xml version="1.0" encoding="UTF-8"?>
<svg version="1.1" xmlns="http://www.w3.org/2000/svg" width="512" height="512">
<path d="M0 0 C168.96 0 337.92 0 512 0 C512 168.96 512 337.92 512 512 C343.04 512 174.08 512 0 512 C0 343.04 0 174.08 0 0 Z " fill="#B37913" transform="translate(0,0)"/>
<path d="M0 0 C2.49054563 0.09997468 4.94731128 0.13882158 7.4375 0.125 C8.09943359 0.12886719 8.76136719 0.13273437 9.44335938 0.13671875 C13.28944364 0.12939985 17.05113584 -0.08812784 20.87548828 -0.49780273 C27.74955487 -1.13703154 34.59657429 -1.16200229 41.49609375 -1.16796875 C42.86084527 -1.17119065 44.22559646 -1.17455539 45.59034729 -1.17805481 C48.42669477 -1.18399221 51.26301199 -1.18589985 54.09936523 -1.18530273 C57.72966273 -1.18520033 61.3597681 -1.1989569 64.9900198 -1.21607494 C67.79786574 -1.22718728 70.60566467 -1.22922234 73.41353035 -1.22869301 C75.40106276 -1.23044015 77.38858051 -1.2412661 79.37608337 -1.25224304 C80.58156326 -1.24916641 81.78704315 -1.24608978 83.02905273 -1.24291992 C84.61809669 -1.24505745 84.61809669 -1.24505745 86.23924255 -1.24723816 C89.03064087 -0.99725597 90.67558693 -0.54029159 93 1 C94.11704958 3.96134499 94.22217712 6.85700659 94 10 C92.4375 13.0625 92.4375 13.0625 90 15 C86.78807866 15.42825618 84.16724001 15.02881207 80.984375 14.48046875 C76.02535758 13.76615045 71.0616625 13.89307819 66.0625 13.9375 C65.09248047 13.94201172 64.12246094 13.94652344 63.12304688 13.95117188 C60.7486324 13.9628685 58.37434979 13.97925914 56 14 C55.02234082 16.93297755 54.95220358 18.22733238 55.234375 21.2109375 C55.31244385 22.03722656 55.3905127 22.86351563 55.47094727 23.71484375 C55.56303467 24.59269531 55.65512207 25.47054687 55.75 26.375 C55.88716431 27.72658203 55.88716431 27.72658203 56.02709961 29.10546875 C56.69253797 35.22072151 57.80565144 41.06721185 59.34375 47.02734375 C60.25338189 51.14775961 60.50297993 55.23321852 60.69140625 59.44140625 C60.83120579 61.9620955 60.83120579 61.9620955 61.9934082 63.77856445 C63.2890974 66.63800564 63.32280083 68.96637318 63.4140625 72.1015625 C63.47182861 73.90729736 63.47182861 73.90729736 63.53076172 75.74951172 C63.56186035 77.02842285 63.59295898 78.30733398 63.625 79.625 C63.66512207 80.93355957 63.70524414 82.24211914 63.74658203 83.59033203 C63.94907283 90.69328833 64.00149147 97.77146326 63.875 104.875 C63.76188469 111.7965416 64.80924121 118.00947646 66.328125 124.72265625 C67.67672768 131.30101469 67.11719724 137.4364662 66 144 C70.74396231 141.62801884 73.93945975 138.26151175 77 134 C77.33 133.01 77.66 132.02 78 131 C79.453125 129.5703125 79.453125 129.5703125 81.25 128.125 C86.32945291 124.01199167 90.69724266 119.28853559 95.0625 114.4375 C99.66339669 109.32618026 99.66339669 109.32618026 102.14453125 106.921875 C104.01036584 104.98926317 105.25723684 103.11588029 106.625 100.8125 C110.23192283 95.24150214 114.99568008 91.28579425 120 87 C124.15038845 83.05206952 127.91867981 78.78176923 131.71875 74.5 C134.07443497 71.91842743 136.51189887 69.45396559 139 67 C145.53221519 60.55225311 151.74435041 54.19807447 157.375 46.9375 C160.33791916 43.62185237 163.35492212 41.52351545 167 39 C167.33 38.34 167.66 37.68 168 37 C162.12955902 35.39897064 156.36431013 34.63517886 150.3125 34.1875 C149.58812744 34.12248291 148.86375488 34.05746582 148.11743164 33.99047852 C143.17644713 33.6771699 140.2597814 34.58109758 136 37 C133.18407585 36.86902678 131.59968218 36.35153783 129.1875 34.9375 C127.20803663 31.70784924 127.76278705 28.73610391 128 25 C129 23 129 23 131.96875 21.921875 C136.44023169 20.75837721 140.89958829 20.47529662 145.5 20.25 C146.31597656 20.19457031 147.13195312 20.13914062 147.97265625 20.08203125 C153.11425157 19.8096835 157.04285942 20.43489341 162 22 C164.24408325 22.24848867 166.49562855 22.43813913 168.75 22.5625 C172.12570716 22.7548368 174.78728732 22.92909577 178 24 C184.2633339 24.43369301 190.32049815 24.03125369 196.50390625 23 C203.91587443 21.90173133 211.14340529 21.73688814 218.625 21.8125 C219.84445312 21.81314453 221.06390625 21.81378906 222.3203125 21.81445312 C229.92525243 21.85101534 237.43309242 22.24261199 245 23 C246.33359073 30.3953668 246.33359073 30.3953668 245 32.8125 C238.40311674 36.72939943 234.0748263 37.27215201 226.5625 36.5625 C218.24396264 35.97875614 210.12862496 36.06023445 201.8125 36.6875 C200.76715088 36.75332275 199.72180176 36.81914551 198.64477539 36.88696289 C197.19059204 37.01059204 197.19059204 37.01059204 195.70703125 37.13671875 C194.41502808 37.24052856 194.41502808 37.24052856 193.09692383 37.34643555 C190.82037992 37.79510937 190.82037992 37.79510937 189.86987305 39.97192383 C189.58281494 40.64118896 189.29575684 41.3104541 189 42 C187 43 185 44 183 45 C180.96903919 46.65875285 179.04375391 48.39675417 177.125 50.18359375 C175 52 175 52 172.09765625 53.8515625 C168.72526702 56.1905462 166.12051561 58.87174322 163.4375 61.9375 C162.52066291 62.96845543 161.6027023 63.99841284 160.68359375 65.02734375 C160.24023682 65.52524414 159.79687988 66.02314453 159.34008789 66.53613281 C157.30077918 68.76380543 155.13706135 70.86661058 153 73 C152.401875 73.78375 151.80375 74.5675 151.1875 75.375 C149.23487094 77.71815487 147.30929998 79.52791757 145 81.5 C141.20891556 84.74950095 138.02468375 87.89670177 135.8125 92.4375 C133.44397586 95.78610309 130.53372562 97.35329321 127.08984375 99.5078125 C124.5739957 101.30417503 123.37158126 103.25683749 122 106 C121.34 106 120.68 106 120 106 C121.10033815 107.60679516 122.20542664 109.21033793 123.3125 110.8125 C123.92738281 111.70582031 124.54226562 112.59914063 125.17578125 113.51953125 C126.8486675 115.93871377 126.8486675 115.93871377 128.58203125 117.53125 C130.38800608 119.40190162 131.27483464 121.33580424 132.375 123.6875 C133.960948 126.97881979 135.61829412 130.07263112 137.625 133.125 C140.55710414 137.68502316 143 142.48130129 143 148 C143.66 148 144.32 148 145 148 C146.078125 149.50390625 146.078125 149.50390625 147.25 151.5625 C148.9859543 154.4762404 150.77753532 156.99521593 153.0625 159.5 C155.69678706 162.45603205 157.28285399 165.40621692 158.953125 168.97265625 C162.29297287 175.44049597 167.58090005 181.0050831 172.16796875 186.60546875 C173.98457902 188.97984422 175.48164045 191.42844307 177 194 C177.474375 194.474375 177.94875 194.94875 178.4375 195.4375 C181.30470608 198.30470608 183.30629766 201.83726028 185.375 205.3046875 C186.53344767 207.22615119 187.72471656 209.12798626 188.9375 211.015625 C195.1814059 220.8072047 195.1814059 220.8072047 196.8125 226.25 C197.204375 227.4875 197.59625 228.725 198 230 C198.99 230.33 199.98 230.66 201 231 C202.30358586 233.33922913 203.4491579 235.63462302 204.5625 238.0625 C207.78526402 244.82020462 211.41584855 251.144841 215.49829102 257.41821289 C217.97911716 261.25431914 220.13388141 265.11772642 222.08447266 269.2512207 C223.39723992 271.7587812 225.22233696 273.80754892 227 276 C227.33 276.845625 227.66 277.69125 228 278.5625 C228.85133271 281.09412884 228.85133271 281.09412884 230.859375 282.82421875 C233.14101107 285.14332695 234.62321874 287.4401051 236.25 290.25 C236.77078125 291.14203125 237.2915625 292.0340625 237.828125 292.953125 C238.21484375 293.62859375 238.6015625 294.3040625 239 295 C241.52181288 294.71542568 244.04221196 294.42254942 246.5625 294.125 C247.26697266 294.04636719 247.97144531 293.96773438 248.69726562 293.88671875 C252.10422979 293.47851106 255.15029885 292.95421247 258.44921875 291.94921875 C262.8005178 290.78600019 266.76962202 290.6691378 271.25 290.6875 C272.45269531 290.66333008 272.45269531 290.66333008 273.6796875 290.63867188 C274.83597656 290.63770508 274.83597656 290.63770508 276.015625 290.63671875 C277.05638184 290.63224731 277.05638184 290.63224731 278.11816406 290.62768555 C280.65730633 291.13004569 281.52167022 291.88492669 283 294 C283.52814972 297.82590271 282.81059131 300.10307853 280.65234375 303.26171875 C278.73331161 305.65924233 277.6155702 306.82037879 274.64892578 307.68603516 C271.92507287 307.9059416 269.29324797 307.91009506 266.5625 307.8125 C258.57770354 307.68078428 258.57770354 307.68078428 251.12182617 310.29370117 C246.33250803 311.88793629 241.02686687 311.53399496 236.02267456 311.68145752 C222.26633557 312.12048754 209.61789632 313.96732704 196.34130859 317.61230469 C181.88270855 321.58084017 181.88270855 321.58084017 177.0625 318.9375 C175.48831335 316.06692435 175.30426913 313.2252528 175 310 C175.9590625 309.566875 175.9590625 309.566875 176.9375 309.125 C179.15206079 308.17176549 179.15206079 308.17176549 180 306 C182.19505383 305.62112769 184.40886393 305.3498254 186.625 305.125 C193.4991831 304.34307099 199.86433872 302.8370174 206.52734375 300.9453125 C210.40528431 299.88967514 214.2773276 299.13336946 218.2421875 298.4921875 C218.82226562 298.32976562 219.40234375 298.16734375 220 298 C220.33 297.34 220.66 296.68 221 296 C220.01 295.67 219.02 295.34 218 295 C217.27417212 293.28440684 216.5538909 291.56586485 215.8828125 289.828125 C214.98301052 287.70862775 214.98301052 287.70862775 212.5 285.5 C209.46094693 282.46094693 208.57112705 279.96522541 207 276 C206.34 275.34 205.68 274.68 205 274 C204.608125 272.845 204.21625 271.69 203.8125 270.5 C202.16120586 265.79553179 199.41975159 262.14778833 196.42578125 258.19921875 C195 256 195 256 195 253 C194.34 253 193.68 253 193 253 C192.67 250.69 192.34 248.38 192 246 C191.01 245.67 190.02 245.34 189 245 C187.90234375 242.96875 187.90234375 242.96875 186.9375 240.5 C185.77297997 237.03943188 185.77297997 237.03943188 183 235 C182.32421875 233.1796875 182.32421875 233.1796875 181.6875 230.875 C180.19834528 226.11882216 178.13846804 222.86272989 175 219 C174.34 218.67 173.68 218.34 173 218 C172.608125 217.01 172.21625 216.02 171.8125 215 C169.38953232 209.02252643 165.13458657 203.97839731 160.4375 199.625 C157.4218663 196.37739448 155.65678609 192.89322609 153.61328125 188.98046875 C151.45662493 184.99613759 148.99539369 181.24029443 146.53125 177.44140625 C144.82134531 174.71515514 143.43812856 171.87625711 142 169 C140.17860033 166.59315043 138.25431189 164.29737615 136.29296875 162.00390625 C132.72847667 157.6739864 130.4595578 154.10523534 128.9375 148.73046875 C127.62560409 144.90957191 125.86287217 141.36177453 124.0625 137.75 C123.72613525 137.06413818 123.38977051 136.37827637 123.04321289 135.67163086 C121.05527414 131.72801103 118.9066371 128.36174729 116 125 C115.01 123.824375 115.01 123.824375 114 122.625 C113.34 122.08875 112.68 121.5525 112 121 C106.85690256 121.56552731 103.47956488 125.4798965 100 129 C98.43661242 131.01224338 96.97301031 133.07468567 95.50390625 135.15625 C93.51096061 137.5995496 91.20758829 139.08026499 88.58984375 140.79296875 C86.06115076 142.71278726 84.68301174 145.33975563 83 148 C82.0033026 149.04441164 80.9810942 150.06494672 79.9375 151.0625 C77.40188479 153.49008148 75.79692155 155.97790466 74 159 C73.29875 159.495 72.5975 159.99 71.875 160.5 C69.36485857 162.50811314 69.45023309 163.86073431 69 167 C68.91168921 168.70923031 68.86941313 170.42130378 68.8671875 172.1328125 C68.86589844 173.10476563 68.86460937 174.07671875 68.86328125 175.078125 C68.86714844 176.08359375 68.87101562 177.0890625 68.875 178.125 C68.87113281 179.10726562 68.86726563 180.08953125 68.86328125 181.1015625 C68.39343972 192.34926797 68.39343972 192.34926797 71 203 C71.19068253 205.57775917 71.32869547 208.13723064 71.4296875 210.71875 C71.50343307 212.3073137 71.57766818 213.89585474 71.65234375 215.484375 C71.76507012 217.98094688 71.87409854 220.47749466 71.97412109 222.97460938 C72.42382602 235.20912437 72.42382602 235.20912437 75.33154297 247.04931641 C76.22779666 249.66475357 76.47151387 252.18686692 76.625 254.9375 C76.80670817 257.94433765 77.03983446 260.11950339 78 263 C82.35994067 263.024727 86.71984414 263.04287281 91.07983398 263.05493164 C92.56291413 263.05995903 94.04598933 263.06678185 95.52905273 263.07543945 C97.66130801 263.08757482 99.79349773 263.09324425 101.92578125 263.09765625 C103.20880127 263.10289307 104.49182129 263.10812988 105.8137207 263.11352539 C109.0225974 263.14927176 109.0225974 263.14927176 112 262 C112 262.66 112 263.32 112 264 C112.99 264.33 113.98 264.66 115 265 C116.34297812 272.44742414 116.34297812 272.44742414 114.875 274.8125 C114.25625 275.204375 113.6375 275.59625 113 276 C112.01773438 276.77150391 112.01773438 276.77150391 111.015625 277.55859375 C106.64049605 279.64981471 102.65691307 279.35977132 97.875 279.25 C96.51568359 279.24226562 96.51568359 279.24226562 95.12890625 279.234375 C88.46622984 279.15540995 88.46622984 279.15540995 85 278 C83.46889263 277.93028538 81.93488003 277.91553471 80.40234375 277.9375 C79.51869141 277.94523437 78.63503906 277.95296875 77.72460938 277.9609375 C76.80486328 277.97382813 75.88511719 277.98671875 74.9375 278 C73.11333995 278.02545932 71.28911138 278.04650934 69.46484375 278.0625 C68.656521 278.07410156 67.84819824 278.08570313 67.01538086 278.09765625 C65 278 65 278 63 277 C60.22586948 276.90084373 57.47741814 276.86018576 54.703125 276.8671875 C53.87673523 276.86623077 53.05034546 276.86527405 52.19891357 276.86428833 C50.4470614 276.86360703 48.69520671 276.86545784 46.94335938 276.86962891 C44.27468097 276.87495078 41.60617296 276.86969633 38.9375 276.86328125 C37.23437463 276.86394257 35.53124937 276.86522485 33.828125 276.8671875 C32.63718231 276.86415115 32.63718231 276.86415115 31.42218018 276.86105347 C27.15931247 276.87887758 23.20478513 277.22027099 19 278 C17.01905054 278.19025042 15.03564801 278.3562644 13.05078125 278.5 C11.95572266 278.5825 10.86066406 278.665 9.73242188 278.75 C7.44081734 278.91751878 5.14914973 279.08417684 2.85742188 279.25 C1.76623047 279.3325 0.67503906 279.415 -0.44921875 279.5 C-1.44268311 279.5721875 -2.43614746 279.644375 -3.4597168 279.71875 C-6.11973711 279.92329531 -6.11973711 279.92329531 -9 281 C-10.47686111 281.09247381 -11.95775501 281.12999071 -13.4375 281.125 C-14.19933594 281.12757813 -14.96117188 281.13015625 -15.74609375 281.1328125 C-19.14831613 280.93233492 -21.30036609 280.69963391 -23.75 278.25 C-25.26663696 275.52005347 -25.46210615 274.08070768 -25 271 C-23.7824707 268.87524414 -23.7824707 268.87524414 -22 267 C-19.73510742 266.50170898 -19.73510742 266.50170898 -17.10546875 266.49609375 C-16.14962891 266.47740234 -15.19378906 266.45871094 -14.20898438 266.43945312 C-13.21189453 266.43880859 -12.21480469 266.43816406 -11.1875 266.4375 C-2.02991466 266.71670416 -2.02991466 266.71670416 6 263 C6.86448661 260.31745184 7.20187197 258.44144354 7.375 255.6875 C7.44259521 254.92856445 7.51019043 254.16962891 7.57983398 253.38769531 C8.28391735 244.04703721 8.12693031 234.64520779 8.01513672 225.28393555 C8.00111816 224.04039307 7.98709961 222.79685059 7.97265625 221.515625 C7.94570679 219.84935059 7.94570679 219.84935059 7.91821289 218.14941406 C7.99988184 215.00454989 8.43275422 212.08991762 9 209 C9.08599707 207.27247056 9.13036329 205.54216029 9.125 203.8125 C9.12757813 202.97332031 9.13015625 202.13414062 9.1328125 201.26953125 C9.08902948 198.83331218 9.08902948 198.83331218 8 196 C8.33 195.34 8.66 194.68 9 194 C9.19149328 191.29735908 9.32927028 188.61255834 9.4296875 185.90625 C9.50353546 184.21743166 9.577768 182.52863011 9.65234375 180.83984375 C9.76422105 178.19692423 9.87293303 175.55399575 9.97412109 172.91064453 C10.39384186 162.16374552 11.30101513 151.76983355 13.28564453 141.19335938 C14.99269167 131.62704743 15.12435571 122.19689251 15.0625 112.49609375 C15.05808545 111.12272821 15.05427126 109.74936062 15.05102539 108.37599182 C15.03970427 104.06313092 15.02040296 99.7503262 15 95.4375 C14.97638295 90.40526307 14.95605319 85.37305558 14.94406128 80.34077644 C14.93757038 78.3303927 14.92499528 76.3200316 14.91235352 74.30967712 C14.90905029 73.10074295 14.90574707 71.89180878 14.90234375 70.64624023 C14.89710693 69.57719955 14.89187012 68.50815887 14.88647461 67.40672302 C15 65 15 65 16 64 C16.14576429 62.17137201 16.22729002 60.33754086 16.28125 58.50390625 C16.31863281 57.38822266 16.35601562 56.27253906 16.39453125 55.12304688 C16.42933594 53.94806641 16.46414062 52.77308594 16.5 51.5625 C16.56869107 49.25117264 16.64140371 46.93996017 16.71875 44.62890625 C16.74904297 43.59838135 16.77933594 42.56785645 16.81054688 41.50610352 C17 39 17 39 18 37 C18.66 37 19.32 37 20 37 C19.9690625 35.8553125 19.938125 34.710625 19.90625 33.53125 C19.90625 29.05159621 20.60047103 24.87608689 21.5 20.5 C21.64308594 19.77296875 21.78617188 19.0459375 21.93359375 18.296875 C22.28233698 16.52990929 22.64019723 14.76474691 23 13 C22.20303711 13.01047363 21.40607422 13.02094727 20.58496094 13.03173828 C16.97333938 13.07331772 13.36176821 13.09933261 9.75 13.125 C8.49574219 13.14175781 7.24148437 13.15851563 5.94921875 13.17578125 C4.74394531 13.18222656 3.53867188 13.18867187 2.296875 13.1953125 C1.18666992 13.20578613 0.07646484 13.21625977 -1.06738281 13.22705078 C-3.99704474 13.0002288 -5.47523134 12.39044254 -8 11 C-9.175625 10.896875 -10.35125 10.79375 -11.5625 10.6875 C-15 10 -15 10 -17 7.75 C-18.18007824 4.50478484 -18.41472531 3.16232717 -17 0 C-11.54370221 -4.22863079 -5.83769979 -2.9188499 0 0 Z " fill="#FDFCFA" transform="translate(127,98)"/>
<path d="M0 0 C1.2065625 0.0309375 1.2065625 0.0309375 2.4375 0.0625 C2.51266846 0.94808594 2.58783691 1.83367187 2.6652832 2.74609375 C4.34074956 23.99576434 4.34074956 23.99576434 7.7890625 45.00390625 C9.37394212 52.47957339 9.62629402 59.67658871 9.71875 67.3046875 C9.74636414 69.05085861 9.74636414 69.05085861 9.77453613 70.83230591 C9.85303658 75.79729268 9.92130119 80.76240491 9.98974609 85.72753906 C10.04127841 89.35749416 10.09856252 92.98732586 10.15625 96.6171875 C10.16982544 97.74937714 10.18340088 98.88156677 10.1973877 100.04806519 C10.21410522 101.08649567 10.23082275 102.12492615 10.24804688 103.19482422 C10.26057495 104.11302948 10.27310303 105.03123474 10.28601074 105.9772644 C10.20818339 108.05118769 10.20818339 108.05118769 11.4375 109.0625 C12.94337309 117.54731594 12.4596979 126.12602094 12.31054688 134.70898438 C12.25571235 140.70530073 12.44487648 146.07710562 13.96313477 151.87866211 C14.89091302 156.14988006 14.82878091 160.51979643 14.9375 164.875 C15.17751337 171.952151 15.66454745 178.74287784 17.03125 185.70703125 C17.57693591 188.87096013 17.50710812 191.86052653 17.4375 195.0625 C17.7675 195.7225 18.0975 196.3825 18.4375 197.0625 C18.43140928 198.91712477 18.38072256 200.77162043 18.3125 202.625 C18.24375088 209.93532268 18.99529689 217.05934269 19.875 224.3125 C20.0095459 225.43213135 20.1440918 226.5517627 20.28271484 227.70532227 C20.77323502 233.04878852 20.77323502 233.04878852 22.4375 238.0625 C22.50783769 239.93629605 22.5218022 241.81251102 22.5 243.6875 C22.49097656 244.69039062 22.48195312 245.69328125 22.47265625 246.7265625 C22.46105469 247.49742187 22.44945312 248.26828125 22.4375 249.0625 C19.29213232 249.25844676 16.14619386 249.4428401 13 249.625 C12.10216797 249.68107422 11.20433594 249.73714844 10.27929688 249.79492188 C9.42529297 249.84326172 8.57128906 249.89160156 7.69140625 249.94140625 C6.90064697 249.9885376 6.1098877 250.03566895 5.29516602 250.08422852 C3.4375 250.0625 3.4375 250.0625 2.4375 249.0625 C0.95111008 248.90594973 -0.54199127 248.81183057 -2.03515625 248.74609375 C-2.93427734 248.70419922 -3.83339844 248.66230469 -4.75976562 248.61914062 C-5.70529297 248.57982422 -6.65082031 248.54050781 -7.625 248.5 C-8.57439453 248.45681641 -9.52378906 248.41363281 -10.50195312 248.36914062 C-12.85531353 248.26270724 -15.20878354 248.16068992 -17.5625 248.0625 C-17.72380346 238.15129837 -17.72380346 238.15129837 -17.0625 233.6875 C-16.25451223 227.82958869 -15.56628778 220.911148 -17.0625 215.13085938 C-17.57685072 213.00313512 -17.69173322 211.1656175 -17.6953125 208.98046875 C-17.69660156 208.21283203 -17.69789063 207.44519531 -17.69921875 206.65429688 C-17.69535156 205.86087891 -17.69148437 205.06746094 -17.6875 204.25 C-17.69136719 203.46818359 -17.69523438 202.68636719 -17.69921875 201.88085938 C-17.69332311 198.35231894 -17.55810535 195.03194029 -17.0546875 191.53125 C-16.47375562 187.43706343 -16.49006063 183.50042192 -16.5625 179.375 C-16.63620197 175.1113408 -16.62968465 171.20796476 -15.5625 167.0625 C-15.38405822 164.41419745 -15.24010231 161.77587663 -15.125 159.125 C-14.86678085 153.9496756 -14.46677845 148.92334783 -13.5625 143.8125 C-12.39375093 137.03203664 -12.16906684 130.26186552 -11.9921875 123.39550781 C-11.83130656 118.50874939 -11.15098711 114.71313093 -9.5625 110.0625 C-9.45336402 107.52309204 -9.43634882 104.97845494 -9.5 102.4375 C-9.66126786 95.41183043 -9.66126786 95.41183043 -9.00317383 93.08422852 C-8.3644238 90.15376371 -9.36959215 87.72608117 -10.06445312 84.86767578 C-11.11074799 78.9745738 -10.84747677 72.96645442 -10.8125 67 C-10.81963974 65.6634077 -10.82744814 64.32681879 -10.8359375 62.99023438 C-10.8143571 52.21622012 -10.8143571 52.21622012 -9.6015625 47.8359375 C-8.2224605 42.82761969 -8.01717337 37.91755613 -7.6875 32.75 C-7.15463665 25.37591497 -6.34155004 19.11223758 -3.3125 12.296875 C-2.01022317 8.41717526 -2.85856049 5.03015908 -3.5625 1.0625 C-2.5625 0.0625 -2.5625 0.0625 0 0 Z " fill="#B37A15" transform="translate(166.5625,111.9375)"/>
<path d="M0 0 C0.33 0 0.66 0 1 0 C1 13.53 1 27.06 1 41 C-12.53 41 -26.06 41 -40 41 C-36.77794772 39.38897386 -33.66489916 38.09649079 -30.3125 36.8125 C-16.32964928 30.99481758 -7.86955879 20.70813891 -2 7 C-1.17794005 4.65968578 -0.55034658 2.42152494 0 0 Z " fill="#000000" transform="translate(511,471)"/>
<path d="M0 0 C13.53 0 27.06 0 41 0 C41 13.53 41 27.06 41 41 C39.38897386 37.77794772 38.09649079 34.66489916 36.8125 31.3125 C30.99481758 17.32964928 20.70813891 8.86955879 7 3 C4.65968578 2.17794005 2.42152494 1.55034658 0 1 C0 0.67 0 0.34 0 0 Z " fill="#000000" transform="translate(471,0)"/>
<path d="M0 0 C13.53 0 27.06 0 41 0 C37.77794772 1.61102614 34.66489916 2.90350921 31.3125 4.1875 C17.32964928 10.00518242 8.86955879 20.29186109 3 34 C2.17794005 36.34031422 1.55034658 38.57847506 1 41 C0.67 41 0.34 41 0 41 C0 27.47 0 13.94 0 0 Z " fill="#000000" transform="translate(0,0)"/>
<path d="M0 0 C1.61857992 3.23715984 2.94284144 6.38624531 4.25 9.75 C6.52146149 15.21611931 9.11619238 19.55584203 13 24 C13.71542969 24.88945312 13.71542969 24.88945312 14.4453125 25.796875 C21.17431411 33.43885673 31.33603298 37.47306985 41 40 C41 40.33 41 40.66 41 41 C27.47 41 13.94 41 0 41 C0 27.47 0 13.94 0 0 Z " fill="#000000" transform="translate(0,471)"/>
</svg>
